<svg width="184" height="30" viewBox="0 0 184 30" fill="none" xmlns="http://www.w3.org/2000/svg">
<g clip-path="url(#clip0_9175_20449)">
<rect width="30" height="30" fill="white" fill-opacity="0.01"/>
<path fill-rule="evenodd" clip-rule="evenodd" d="M3.75 0H26.25C27.2446 0 28.1984 0.395088 28.9017 1.09835C29.6049 1.80161 30 2.75544 30 3.75V26.25C30 27.2446 29.6049 28.1984 28.9017 28.9017C28.1984 29.6049 27.2446 30 26.25 30H3.75C2.75544 30 1.80161 29.6049 1.09835 28.9017C0.395088 28.1984 0 27.2446 0 26.25L0 3.75C0 2.75544 0.395088 1.80161 1.09835 1.09835C1.80161 0.395088 2.75544 0 3.75 0V0ZM22.735 11.75H18.9062V6C18.9048 5.54218 18.7642 5.0956 18.5032 4.71947C18.2422 4.34333 17.8731 4.05539 17.4447 3.8938C17.0164 3.73222 16.549 3.70462 16.1046 3.81466C15.6602 3.92471 15.2597 4.1672 14.9563 4.51L14.71 4.7725C14.5912 4.915 14.5913 4.915 14.305 5.26875C13.0596 6.80566 11.8196 8.34691 10.585 9.8925L10.4688 10.0388C6.485 15.0375 6.25 15.3425 6.25 16C6.25 17.2625 7.27375 17.9988 8.4625 18.2L8.6725 18.2175H12.3438V24C12.3438 25.2463 13.3625 26.25 14.61 26.25C15.1475 26.25 15.8138 25.955 16.51 25.2588L16.6013 25.155L16.9512 24.7175C18.1929 23.1598 19.4316 21.5998 20.6675 20.0375L20.7288 19.9612C21.6548 18.7924 22.5756 17.6195 23.4912 16.4425C23.885 15.9338 24.1938 15.5313 24.4088 15.2425C24.5275 15.0838 24.62 14.9562 24.6875 14.86C24.74 14.7825 24.74 14.7825 24.7937 14.6975C24.8562 14.64 24.8562 14.64 25 14C25 12.7537 23.9813 11.75 22.7338 11.75H22.735ZM16.4062 14.25V6.64625C16.0458 7.08973 15.6862 7.53389 15.3275 7.97875C14.395 9.13361 13.4659 10.2911 12.54 11.4513L12.4812 11.5237L12.4238 11.5975C10.4575 14.0637 9.6525 15.0825 9.17875 15.7175H14.8438V23.35L14.9962 23.1575C16.2362 21.6031 17.4733 20.0464 18.7075 18.4875L18.7675 18.4113C19.8607 17.0299 20.9465 15.6428 22.025 14.25H16.4062V14.25Z" fill="#1E78FF"/>
</g>
<path d="M43.834 24.312V17.1011H51.2861V14.0669H43.834V9.15381H51.9971V5.99268H40V24.312H43.834Z" fill="#172B4D"/>
<path d="M66.5205 10.7026H62.8135V18.4976C62.8135 20.3003 61.7852 21.481 60.1348 21.481C58.4971 21.481 57.5957 20.5161 57.5957 18.7007V10.7026H53.8887V19.4751C53.8887 22.6489 55.8438 24.5659 58.7891 24.5659C60.8457 24.5659 62.1914 23.5757 62.8643 21.8618H62.9404V24.312H66.5205V10.7026Z" fill="#172B4D"/>
<path d="M68.7041 14.7017C68.7041 16.7075 70.0244 18.0532 72.6016 18.6372L75.1152 19.1958C76.334 19.4878 76.791 19.8687 76.791 20.5542C76.791 21.4429 75.9404 22.0015 74.5312 22.0015C73.0586 22.0015 72.1572 21.3413 71.9795 20.1987H68.3613C68.5645 22.8521 70.7988 24.604 74.4297 24.604C78.0225 24.604 80.4854 22.8394 80.4854 20.1606C80.4854 18.1294 79.3809 17.0503 76.6514 16.4409L74.0488 15.8823C72.8555 15.603 72.2715 15.146 72.2715 14.4731C72.2715 13.5972 73.1094 13.0132 74.3916 13.0132C75.7627 13.0132 76.6387 13.686 76.7148 14.7778H80.1299C80.0791 12.1372 77.8574 10.4106 74.4424 10.4106C70.9512 10.4106 68.7041 12.1118 68.7041 14.7017Z" fill="#172B4D"/>
<path d="M82.4023 24.312H86.1094V10.7026H82.4023V24.312ZM84.2559 9.20459C85.373 9.20459 86.2363 8.354 86.2363 7.2876C86.2363 6.2085 85.373 5.37061 84.2559 5.37061C83.1387 5.37061 82.2754 6.2085 82.2754 7.2876C82.2754 8.354 83.1387 9.20459 84.2559 9.20459Z" fill="#172B4D"/>
<path d="M94.8311 24.604C98.9443 24.604 101.572 21.9761 101.572 17.4946C101.572 13.0767 98.9062 10.4106 94.8311 10.4106C90.7559 10.4106 88.0898 13.0894 88.0898 17.4946C88.0898 21.9634 90.7178 24.604 94.8311 24.604ZM94.8311 21.7729C93.0029 21.7729 91.8477 20.2368 91.8477 17.5073C91.8477 14.8032 93.0283 13.2417 94.8311 13.2417C96.6338 13.2417 97.8018 14.8032 97.8018 17.5073C97.8018 20.2368 96.6465 21.7729 94.8311 21.7729Z" fill="#172B4D"/>
<path d="M103.489 24.312H107.196V16.5044C107.196 14.7397 108.25 13.521 109.913 13.521C111.576 13.521 112.414 14.5366 112.414 16.314V24.312H116.121V15.5396C116.121 12.353 114.42 10.4487 111.398 10.4487C109.304 10.4487 107.869 11.439 107.146 13.1274H107.069V10.7026H103.489V24.312Z" fill="#172B4D"/>
<path d="M126.887 24.6294C131.381 24.6294 134.517 22.0396 134.948 17.9517H131.216C130.81 20.1226 129.172 21.4556 126.899 21.4556C123.967 21.4556 122.126 19.0435 122.126 15.1333C122.126 11.2739 123.992 8.84912 126.887 8.84912C129.121 8.84912 130.848 10.3218 131.203 12.5688H134.936C134.644 8.46826 131.292 5.67529 126.887 5.67529C121.58 5.67529 118.216 9.24268 118.216 15.146C118.216 21.062 121.555 24.6294 126.887 24.6294Z" fill="#172B4D"/>
<path d="M137.094 24.312H140.801V5.99268H137.094V24.312Z" fill="#172B4D"/>
<path d="M143.365 24.312H147.072V10.7026H143.365V24.312ZM145.219 9.20459C146.336 9.20459 147.199 8.354 147.199 7.2876C147.199 6.2085 146.336 5.37061 145.219 5.37061C144.102 5.37061 143.238 6.2085 143.238 7.2876C143.238 8.354 144.102 9.20459 145.219 9.20459Z" fill="#172B4D"/>
<path d="M149.548 24.312H153.255V16.0981C153.255 14.5747 154.207 13.5083 155.616 13.5083C156.987 13.5083 157.812 14.3716 157.812 15.8315V24.312H161.38V16.0474C161.38 14.5366 162.307 13.5083 163.716 13.5083C165.15 13.5083 165.938 14.3716 165.938 15.9458V24.312H169.645V15.019C169.645 12.2769 167.854 10.4487 165.188 10.4487C163.195 10.4487 161.57 11.5278 160.961 13.2417H160.885C160.428 11.4644 159.057 10.4487 157.089 10.4487C155.235 10.4487 153.775 11.5278 153.204 13.1655H153.128V10.7026H149.548V24.312Z" fill="#172B4D"/>
<path d="M177.249 21.8491C175.992 21.8491 175.154 21.2144 175.154 20.1987C175.154 19.2339 175.941 18.6118 177.325 18.5103L180.194 18.3325V19.3228C180.194 20.7954 178.861 21.8491 177.249 21.8491ZM176.03 24.5278C177.731 24.5278 179.42 23.6772 180.182 22.23H180.258V24.312H183.838V14.9556C183.838 12.2134 181.565 10.4106 178.074 10.4106C174.469 10.4106 172.222 12.2261 172.082 14.8667H175.472C175.649 13.8638 176.525 13.1782 177.909 13.1782C179.306 13.1782 180.194 13.9146 180.194 15.1841V16.0854L176.767 16.2886C173.377 16.4917 171.473 17.9263 171.473 20.4019C171.473 22.8521 173.44 24.5278 176.03 24.5278Z" fill="#172B4D"/>
<defs>
<clipPath id="clip0_9175_20449">
<rect width="30" height="30" fill="white"/>
</clipPath>
</defs>
</svg>
